# xmcd CD database file
# Copyright (C) 1993-1998 Ti Kan
# 
# Track frame offsets:
#     150
#     12317
#     26640
#     37152
#     43655
#     54865
#     63370
#     74802
#     85375
#     102765
#     116262
#     129255
#     144300
#     154105
# 
# Disc length: 2244 seconds
# 
# Revision: 1
# Processed by: cddbd v1.4b41PL1 Copyright (c) Steve Scherf et al.
# Submitted via: DiscPlay 4.0.4
# 
DISCID=ba08c20e
DTITLE=Various Artist - Country Music 7
DYEAR=1900
DGENRE=
TTITLE0=Don t Think Twice (It s Alright) (Waylon Jennings)
TTITLE1=Mule Train (Frankie Laine)
TTITLE2=Lawdy Miss Clawdy (Mickey Gilley)
TTITLE3=Bye, Bye Blues (Merle Travis)
TTITLE4=Goin  Steady (Faron Young)
TTITLE5=Somewhere In The Night (Porter Wagoner)
TTITLE6=Poem For My Little Lady (Kenny Rogers)
TTITLE7=Dream Baby (Waylon Jennings)
TTITLE8=Mojave Rose (Joni Bishop)
TTITLE9=Undo The Right (Willie Nelson)
TTITLE10=Making Believe (Kitty Wells)
TTITLE11=Reason To Live (The Wilsons)
TTITLE12=Pick Up The Pieces (David Speegle)
TTITLE13=Everyday Miracles (Joni Bishop)
EXTD=
EXTT0=
EXTT1=
EXTT2=
EXTT3=
EXTT4=
EXTT5=
EXTT6=
EXTT7=
EXTT8=
EXTT9=
EXTT10=
EXTT11=
EXTT12=
EXTT13=
PLAYORDER=
